<?xml version="1.0" encoding="UTF-8" standalone="no"?>
<svg width="220px" height="66px" viewBox="0 0 220 66" version="1.1" xmlns="http://www.w3.org/2000/svg" xmlns:xlink="http://www.w3.org/1999/xlink" xmlns:sketch="http://www.bohemiancoding.com/sketch/ns">
    <!-- Generator: Sketch 3.3.3 (12081) - http://www.bohemiancoding.com/sketch -->
    <title>AppStore</title>
    <desc>Created with Sketch.</desc>
    <defs></defs>
    <g id="Desktop" stroke="none" stroke-width="1" fill="none" fill-rule="evenodd" sketch:type="MSPage">
        <g id="01_Desktop" sketch:type="MSArtboardGroup" transform="translate(-570.000000, -1702.000000)">
            <g id="Get-the-app" sketch:type="MSLayerGroup" transform="translate(0.000000, 1240.000000)">
                <g id="AppStore" transform="translate(570.000000, 462.000000)" sketch:type="MSShapeGroup">
                    <path d="M212.172889,65.1851852 L7.70651852,65.1851852 C3.45807407,65.1851852 0,61.7173333 0,57.4721481 L0,7.70162963 C0,3.45481481 3.45807407,0 7.70651852,0 L212.172889,0 C216.419704,0 220,3.45481481 220,7.70162963 L220,57.4721481 C220,61.7173333 216.419704,65.1851852 212.172889,65.1851852" id="Fill-1" fill="#4A4A4A"></path>
                    <g id="Icon" transform="translate(20.000000, 10.000000)" fill="#FFFFFF">
                        <path d="M29.0974815,22.2405926 C29.0502222,16.9882963 33.3980741,14.433037 33.5968889,14.3124444 C31.1345185,10.7223704 27.3179259,10.2318519 25.9767407,10.1943704 C22.7712593,9.85703704 19.6619259,12.1124444 18.029037,12.1124444 C16.3635556,12.1124444 13.849037,10.226963 11.138963,10.2823704 C7.65318519,10.3361481 4.38903704,12.3552593 2.5997037,15.4906667 C-1.09303704,21.8837037 1.66103704,31.2785185 5.19896296,36.4460741 C6.96874074,38.9768889 9.03674074,41.8026667 11.7419259,41.7032593 C14.3900741,41.5924444 15.3792593,40.0133333 18.5765926,40.0133333 C21.742963,40.0133333 22.6718519,41.7032593 25.4324444,41.6397037 C28.2745185,41.5924444 30.0638519,39.0974815 31.7717037,36.5422222 C33.8168889,33.6414815 34.6382222,30.7847407 34.6708148,30.6397037 C34.604,30.6168889 29.1512593,28.5374815 29.0974815,22.2405926" id="Fill-2"></path>
                        <path d="M23.8826667,6.79496296 C25.3053333,5.01377778 26.2798519,2.59051852 26.0093333,0.131407407 C23.9478519,0.222666667 21.3697778,1.5557037 19.8868148,3.29940741 C18.5733333,4.83451852 17.4,7.35066667 17.7031111,9.71688889 C20.0188148,9.88962963 22.3964444,8.54844444 23.8826667,6.79496296" id="Fill-3"></path>
                    </g>
                    <g id="Text" transform="translate(69.000000, 10.000000)" fill="#FFFFFF">
                        <path d="M18.4214815,41.3398519 L14.7222222,41.3398519 L12.6933333,34.9696296 L5.64844444,34.9696296 L3.71733333,41.3398519 L0.114222222,41.3398519 L7.09555556,19.6527407 L11.4075556,19.6527407 L18.4214815,41.3398519 L18.4214815,41.3398519 Z M12.0822222,32.297037 L10.2488889,26.6357037 C10.054963,26.0555556 9.69155556,24.6931852 9.15377778,22.5485926 L9.09022222,22.5485926 C8.87674074,23.4725926 8.53288889,24.8333333 8.0602963,26.6357037 L6.25955556,32.297037 L12.0822222,32.297037 L12.0822222,32.297037 Z" id="Fill-4"></path>
                        <path d="M36.3751111,33.3285926 C36.3751111,35.9881481 35.6564444,38.0903704 34.2191111,39.6336296 C32.9317037,41.0074074 31.3346667,41.6934815 29.4247407,41.6934815 C27.3665185,41.6934815 25.8868148,40.9536296 24.9856296,39.4722963 L24.9204444,39.4722963 L24.9204444,47.7100741 L21.4460741,47.7100741 L21.4460741,30.8499259 C21.4460741,29.1779259 21.4020741,27.4619259 21.3173333,25.7019259 L24.3728889,25.7019259 L24.5668148,28.1805926 L24.632,28.1805926 C25.7906667,26.313037 27.549037,25.3808889 29.9071111,25.3808889 C31.7534815,25.3808889 33.2918519,26.1093333 34.5254815,27.5678519 C35.7591111,29.028 36.3751111,30.9477037 36.3751111,33.3285926 L36.3751111,33.3285926 Z M32.8355556,33.4557037 C32.8355556,31.9336296 32.4933333,30.6788148 31.8056296,29.6912593 C31.0543704,28.662963 30.0472593,28.1463704 28.781037,28.1463704 C27.9238519,28.1463704 27.1465185,28.4331852 26.449037,29.0002963 C25.7515556,29.569037 25.2952593,30.3137778 25.0817778,31.2377778 C24.9742222,31.6663704 24.9204444,32.02 24.9204444,32.297037 L24.9204444,34.9044444 C24.9204444,36.0419259 25.2691852,37.0017778 25.9666667,37.784 C26.6641481,38.5678519 27.5702222,38.958963 28.6848889,38.958963 C29.9934815,38.958963 31.0136296,38.4537778 31.7420741,37.4466667 C32.4705185,36.4379259 32.8355556,35.1081481 32.8355556,33.4557037 L32.8355556,33.4557037 Z" id="Fill-5"></path>
                        <path d="M54.3613333,33.3285926 C54.3613333,35.9881481 53.6426667,38.0903704 52.2037037,39.6336296 C50.9179259,41.0074074 49.3208889,41.6934815 47.410963,41.6934815 C45.3511111,41.6934815 43.8714074,40.9536296 42.9702222,39.4722963 L42.9066667,39.4722963 L42.9066667,47.7100741 L39.4322963,47.7100741 L39.4322963,30.8499259 C39.4322963,29.1779259 39.3882963,27.4619259 39.3035556,25.7019259 L42.3591111,25.7019259 L42.553037,28.1805926 L42.6182222,28.1805926 C43.7752593,26.313037 45.532,25.3808889 47.8933333,25.3808889 C49.7364444,25.3808889 51.2780741,26.1093333 52.5117037,27.5678519 C53.7437037,29.028 54.3613333,30.9477037 54.3613333,33.3285926 L54.3613333,33.3285926 Z M50.8217778,33.4557037 C50.8217778,31.9336296 50.4779259,30.6788148 49.7902222,29.6912593 C49.0405926,28.662963 48.0334815,28.1463704 46.7672593,28.1463704 C45.9084444,28.1463704 45.1311111,28.4331852 44.4336296,29.0002963 C43.7377778,29.569037 43.2831111,30.3137778 43.068,31.2377778 C42.9620741,31.6663704 42.9066667,32.02 42.9066667,32.297037 L42.9066667,34.9044444 C42.9066667,36.0419259 43.2554074,37.0017778 43.9496296,37.784 C44.6471111,38.5678519 45.5548148,38.958963 46.6711111,38.958963 C47.9797037,38.958963 48.9982222,38.4537778 49.7266667,37.4466667 C50.4567407,36.4379259 50.8217778,35.1081481 50.8217778,33.4557037 L50.8217778,33.4557037 Z" id="Fill-6"></path>
                        <path d="M74.470963,35.2597037 C74.470963,37.1028148 73.8321481,38.6037037 72.5447407,39.7623704 C71.1318519,41.0302222 69.1648889,41.6608889 66.6373333,41.6608889 C64.3053333,41.6608889 62.4328889,41.2111111 61.0167407,40.3099259 L61.8217778,37.4140741 C63.3471111,38.3364444 65.0207407,38.7976296 66.8442963,38.7976296 C68.1528889,38.7976296 69.1714074,38.5026667 69.9031111,37.9111111 C70.6331852,37.3211852 70.994963,36.5308148 70.994963,35.5416296 C70.994963,34.6616296 70.6967407,33.9201481 70.0937778,33.3188148 C69.4957037,32.7174815 68.4967407,32.1585185 67.1034074,31.6419259 C63.3063704,30.2257778 61.4078519,28.1512593 61.4078519,25.4216296 C61.4078519,23.6404444 62.0743704,22.1786667 63.4041481,21.0395556 C64.7322963,19.9004444 66.5004444,19.3317037 68.7134815,19.3317037 C70.686963,19.3317037 72.3263704,19.6755556 73.6333333,20.36 L72.7647407,23.1922963 C71.5425185,22.5274074 70.1622222,22.194963 68.6140741,22.194963 C67.3918519,22.194963 66.4368889,22.4948148 65.7540741,23.0961481 C65.1739259,23.6322963 64.8838519,24.2857778 64.8838519,25.0598519 C64.8838519,25.917037 65.2146667,26.6259259 65.8811852,27.1816296 C66.4597037,27.6982222 67.5108148,28.2555556 69.0345185,28.8568889 C70.9004444,29.6081481 72.2725926,30.4865185 73.1542222,31.4936296 C74.0325926,32.5023704 74.470963,33.7588148 74.470963,35.2597037" id="Fill-7"></path>
                        <path d="M85.9582222,28.3093333 L82.1285926,28.3093333 L82.1285926,35.9017778 C82.1285926,37.8328889 82.8032593,38.7976296 84.1558519,38.7976296 C84.7767407,38.7976296 85.2933333,38.7438519 85.7007407,38.6379259 L85.7952593,41.2762963 C85.1108148,41.5321481 84.2112593,41.6608889 83.0933333,41.6608889 C81.7211852,41.6608889 80.6488889,41.2420741 79.8764444,40.4077037 C79.1056296,39.5700741 78.7177778,38.1653333 78.7177778,36.1918519 L78.7177778,28.3093333 L76.4346667,28.3093333 L76.4346667,25.7019259 L78.7177778,25.7019259 L78.7177778,22.8386667 L82.1285926,21.8087407 L82.1285926,25.7019259 L85.9582222,25.7019259 L85.9582222,28.3093333" id="Fill-8"></path>
                        <path d="M103.237185,33.3921481 C103.237185,35.7958519 102.551111,37.7693333 101.178963,39.3125926 C99.74,40.8998519 97.8300741,41.6934815 95.4491852,41.6934815 C93.1546667,41.6934815 91.3278519,40.9324444 89.9654815,39.4087407 C88.6031111,37.8866667 87.9219259,35.9653333 87.9219259,33.6496296 C87.9219259,31.2263704 88.6226667,29.2414815 90.029037,27.6982222 C91.4321481,26.1533333 93.3257778,25.3808889 95.7066667,25.3808889 C98.0011852,25.3808889 99.8475556,26.1419259 101.242519,27.6656296 C102.572296,29.146963 103.237185,31.0536296 103.237185,33.3921481 L103.237185,33.3921481 Z M99.6324444,33.5045926 C99.6324444,32.064 99.3228148,30.8271111 98.6986667,29.7939259 C97.9702222,28.5456296 96.9288889,27.9231111 95.5795556,27.9231111 C94.182963,27.9231111 93.1220741,28.5456296 92.3936296,29.7939259 C91.7694815,30.8271111 91.4614815,32.0835556 91.4614815,33.5697778 C91.4614815,35.012 91.7694815,36.2488889 92.3936296,37.2804444 C93.1448889,38.5271111 94.196,39.1512593 95.5485926,39.1512593 C96.8751111,39.1512593 97.9164444,38.5173333 98.6677037,37.2478519 C99.3097778,36.1951111 99.6324444,34.9451852 99.6324444,33.5045926 L99.6324444,33.5045926 Z" id="Fill-9"></path>
                        <path d="M114.530519,28.7574815 C114.186667,28.6939259 113.82,28.662963 113.435407,28.662963 C112.213185,28.662963 111.268,29.1241481 110.603111,30.0465185 C110.022963,30.8613333 109.734519,31.8912593 109.734519,33.1346667 L109.734519,41.3398519 L106.261778,41.3398519 L106.292741,30.6266667 C106.292741,28.8226667 106.248741,27.1816296 106.16237,25.7019259 L109.190222,25.7019259 L109.317333,28.6939259 L109.411852,28.6939259 C109.778519,27.6656296 110.357037,26.8394074 111.150667,26.2185185 C111.924741,25.6595556 112.760741,25.3808889 113.661926,25.3808889 C113.982963,25.3808889 114.273037,25.4037037 114.530519,25.4444444 L114.530519,28.7574815" id="Fill-10"></path>
                        <path d="M130.069037,32.781037 C130.069037,33.4035556 130.028296,33.9282963 129.941926,34.3568889 L119.518815,34.3568889 C119.559556,35.9017778 120.063111,37.0832593 121.029481,37.8980741 C121.907852,38.6265185 123.045333,38.9915556 124.438667,38.9915556 C125.981926,38.9915556 127.389926,38.7438519 128.656148,38.2500741 L129.200444,40.6635556 C127.720741,41.3072593 125.973778,41.6299259 123.957926,41.6299259 C121.533037,41.6299259 119.62963,40.9161481 118.244444,39.4885926 C116.864148,38.0626667 116.169926,36.1478519 116.169926,33.7457778 C116.169926,31.3877037 116.81363,29.4223704 118.101037,27.8579259 C119.452,26.1842963 121.275556,25.3482963 123.570074,25.3482963 C125.823852,25.3482963 127.530074,26.1842963 128.688741,27.8579259 C129.607852,29.1877037 130.069037,30.8303704 130.069037,32.781037 L130.069037,32.781037 Z M126.756,31.8798519 C126.778815,30.8499259 126.552296,29.9617778 126.081333,29.2088889 C125.48,28.2441481 124.556,27.7617778 123.312593,27.7617778 C122.176741,27.7617778 121.252741,28.2327407 120.545481,29.1779259 C119.966963,29.9291852 119.623111,30.8303704 119.518815,31.8798519 L126.756,31.8798519 L126.756,31.8798519 Z" id="Fill-11"></path>
                        <path d="M2.35333333,1.08637037 C3.21703704,0.956 4.24207407,0.858222222 5.36651852,0.858222222 C7.40192593,0.858222222 8.8522963,1.33081481 9.81214815,2.22711111 C10.7899259,3.12177778 11.3602963,4.39288889 11.3602963,6.16755556 C11.3602963,7.96014815 10.8062222,9.42518519 9.77955556,10.4355556 C8.75451852,11.4605926 7.0597037,12.0146667 4.92651852,12.0146667 C3.91777778,12.0146667 3.07037037,11.9674074 2.35333333,11.8859259 L2.35333333,1.08637037 L2.35333333,1.08637037 Z M3.76948148,10.7940741 C4.12962963,10.8592593 4.64948148,10.8755556 5.20355556,10.8755556 C8.23303704,10.8755556 9.87733333,9.18237037 9.87733333,6.21644444 C9.89525926,3.62696296 8.42859259,1.98266667 5.4317037,1.98266667 C4.69837037,1.98266667 4.1442963,2.04785185 3.76948148,2.1277037 L3.76948148,10.7940741 L3.76948148,10.7940741 Z" id="Fill-12"></path>
                        <path d="M20.8300741,7.90962963 C20.8300741,10.825037 18.8093333,12.0977778 16.9042963,12.0977778 C14.7694815,12.0977778 13.1251852,10.5333333 13.1251852,8.04 C13.1251852,5.40162963 14.8525926,3.85511111 17.033037,3.85511111 C19.2982222,3.85511111 20.8300741,5.50103704 20.8300741,7.90962963 L20.8300741,7.90962963 Z M14.5755556,7.99274074 C14.5755556,9.71851852 15.568,11.0205926 16.9678519,11.0205926 C18.3367407,11.0205926 19.3634074,9.73481481 19.3634074,7.96014815 C19.3634074,6.62385185 18.6952593,4.92903704 17.0004444,4.92903704 C15.3072593,4.92903704 14.5755556,6.49348148 14.5755556,7.99274074 L14.5755556,7.99274074 Z" id="Fill-13"></path>
                        <path d="M23.4977778,4.03437037 L24.5391111,8.04 C24.7672593,8.92 24.9791111,9.73481481 25.1257778,10.548 L25.1746667,10.548 C25.3539259,9.75111111 25.6146667,8.90533333 25.8754074,8.0562963 L27.1611852,4.03437037 L28.3671111,4.03437037 L29.5893333,7.97481481 C29.881037,8.92 30.1091852,9.75111111 30.2884444,10.548 L30.3373333,10.548 C30.4677037,9.75111111 30.6795556,8.92 30.9402963,7.99274074 L32.0647407,4.03437037 L33.4808889,4.03437037 L30.9402963,11.9168889 L29.6365926,11.9168889 L28.4322963,8.1557037 C28.1552593,7.2757037 27.9271111,6.49348148 27.7315556,5.56622222 L27.698963,5.56622222 C27.5034074,6.50977778 27.258963,7.32459259 26.9819259,8.17037037 L25.7124444,11.9168889 L24.4087407,11.9168889 L22.0311111,4.03437037 L23.4977778,4.03437037" id="Fill-14"></path>
                        <path d="M35.4103704,6.16755556 C35.4103704,5.35437037 35.3940741,4.68622222 35.3451852,4.03437037 L36.6162963,4.03437037 L36.6961481,5.33644444 L36.7287407,5.33644444 C37.1198519,4.58844444 38.0324444,3.85511111 39.3345185,3.85511111 C40.4263704,3.85511111 42.1211852,4.50533333 42.1211852,7.20888889 L42.1211852,11.9168889 L40.6871111,11.9168889 L40.6871111,7.37348148 C40.6871111,6.10237037 40.2145185,5.04311111 38.8635556,5.04311111 C37.9183704,5.04311111 37.185037,5.71288889 36.9405926,6.50977778 C36.8754074,6.68903704 36.8428148,6.93348148 36.8428148,7.17792593 L36.8428148,11.9168889 L35.4103704,11.9168889 L35.4103704,6.16755556" id="Fill-15"></path>
                        <path d="M44.8345185,0.353037037 L46.2685926,0.353037037 L46.2685926,11.9168889 L44.8345185,11.9168889 L44.8345185,0.353037037 Z" id="Fill-16"></path>
                        <path d="M56.2614815,7.90962963 C56.2614815,10.825037 54.2423704,12.0977778 52.3357037,12.0977778 C50.2025185,12.0977778 48.5582222,10.5333333 48.5582222,8.04 C48.5582222,5.40162963 50.284,3.85511111 52.4660741,3.85511111 C54.7312593,3.85511111 56.2614815,5.50103704 56.2614815,7.90962963 L56.2614815,7.90962963 Z M50.006963,7.99274074 C50.006963,9.71851852 51.001037,11.0205926 52.4008889,11.0205926 C53.7697778,11.0205926 54.7964444,9.73481481 54.7964444,7.96014815 C54.7964444,6.62385185 54.1282963,4.92903704 52.4351111,4.92903704 C50.7402963,4.92903704 50.006963,6.49348148 50.006963,7.99274074 L50.006963,7.99274074 Z" id="Fill-17"></path>
                        <path d="M62.9364444,11.9168889 L62.8223704,10.9244444 L62.7734815,10.9244444 C62.3334815,11.5437037 61.4860741,12.0977778 60.3632593,12.0977778 C58.7662222,12.0977778 57.9514074,10.9717037 57.9514074,9.83259259 C57.9514074,7.92755556 59.6462222,6.88459259 62.6903704,6.90088889 L62.6903704,6.73792593 C62.6903704,6.08607407 62.5127407,4.91274074 60.901037,4.91274074 C60.1677037,4.91274074 59.4017778,5.14251852 58.8477037,5.50103704 L58.5217778,4.55585185 C59.1736296,4.13214815 60.1171852,3.85511111 61.1128889,3.85511111 C63.5214815,3.85511111 64.1097778,5.50103704 64.1097778,7.08014815 L64.1097778,10.0281481 C64.1097778,10.7125926 64.1407407,11.3791111 64.2401481,11.9168889 L62.9364444,11.9168889 L62.9364444,11.9168889 Z M62.7245926,7.89496296 C61.1601481,7.86237037 59.3854815,8.13940741 59.3854815,9.66962963 C59.3854815,10.5985185 60.0047407,11.0368889 60.7364444,11.0368889 C61.7631111,11.0368889 62.414963,10.3866667 62.6431111,9.71851852 C62.6903704,9.57185185 62.7245926,9.40888889 62.7245926,9.26222222 L62.7245926,7.89496296 L62.7245926,7.89496296 Z" id="Fill-18"></path>
                        <path d="M73.6854815,0.353037037 L73.6854815,9.88148148 C73.6854815,10.5822222 73.7001481,11.3791111 73.7506667,11.9168889 L72.4648889,11.9168889 L72.3997037,10.548 L72.3654815,10.548 C71.9271111,11.428 70.9656296,12.0977778 69.6782222,12.0977778 C67.7731852,12.0977778 66.3065185,10.4828148 66.3065185,8.09051852 C66.2902222,5.46681481 67.9198519,3.85511111 69.8411852,3.85511111 C71.0454815,3.85511111 71.8619259,4.42548148 72.2188148,5.05940741 L72.2514074,5.05940741 L72.2514074,0.353037037 L73.6854815,0.353037037 L73.6854815,0.353037037 Z M72.2514074,7.24311111 C72.2514074,7.06385185 72.2351111,6.81940741 72.1878519,6.64014815 C71.9743704,5.72755556 71.1921481,4.97792593 70.1182222,4.97792593 C68.6352593,4.97792593 67.7568889,6.28162963 67.7568889,8.0237037 C67.7568889,9.62074074 68.5374815,10.9407407 70.0856296,10.9407407 C71.0454815,10.9407407 71.9271111,10.3051852 72.1878519,9.22962963 C72.2351111,9.0357037 72.2514074,8.84014815 72.2514074,8.61037037 L72.2514074,7.24311111 L72.2514074,7.24311111 Z" id="Fill-19"></path>
                        <path d="M87.4721481,7.90962963 C87.4721481,10.825037 85.4514074,12.0977778 83.5447407,12.0977778 C81.4131852,12.0977778 79.7672593,10.5333333 79.7672593,8.04 C79.7672593,5.40162963 81.4946667,3.85511111 83.6767407,3.85511111 C85.9402963,3.85511111 87.4721481,5.50103704 87.4721481,7.90962963 L87.4721481,7.90962963 Z M81.2176296,7.99274074 C81.2176296,9.71851852 82.2100741,11.0205926 83.6099259,11.0205926 C84.9788148,11.0205926 86.0054815,9.73481481 86.0054815,7.96014815 C86.0054815,6.62385185 85.3373333,4.92903704 83.6441481,4.92903704 C81.9493333,4.92903704 81.2176296,6.49348148 81.2176296,7.99274074 L81.2176296,7.99274074 Z" id="Fill-20"></path>
                        <path d="M89.7275556,6.16755556 C89.7275556,5.35437037 89.7128889,4.68622222 89.6623704,4.03437037 L90.9334815,4.03437037 L91.014963,5.33644444 L91.0475556,5.33644444 C91.4386667,4.58844444 92.3512593,3.85511111 93.6533333,3.85511111 C94.7435556,3.85511111 96.44,4.50533333 96.44,7.20888889 L96.44,11.9168889 L95.0059259,11.9168889 L95.0059259,7.37348148 C95.0059259,6.10237037 94.5333333,5.04311111 93.1823704,5.04311111 C92.2355556,5.04311111 91.5038519,5.71288889 91.2594074,6.50977778 C91.1942222,6.68903704 91.1616296,6.93348148 91.1616296,7.17792593 L91.1616296,11.9168889 L89.7275556,11.9168889 L89.7275556,6.16755556" id="Fill-21"></path>
                        <path d="M104.769037,1.77081481 L104.769037,4.03437037 L106.820741,4.03437037 L106.820741,5.12459259 L104.769037,5.12459259 L104.769037,9.3762963 C104.769037,10.3524444 105.046074,10.9065185 105.842963,10.9065185 C106.219407,10.9065185 106.494815,10.8592593 106.674074,10.8103704 L106.739259,11.8859259 C106.462222,11.9983704 106.022222,12.0798519 105.468148,12.0798519 C104.8,12.0798519 104.263852,11.868 103.92163,11.4785185 C103.514222,11.0548148 103.369185,10.3524444 103.369185,9.42518519 L103.369185,5.12459259 L102.146963,5.12459259 L102.146963,4.03437037 L103.369185,4.03437037 L103.369185,2.144 L104.769037,1.77081481" id="Fill-22"></path>
                        <path d="M108.784444,0.353037037 L110.218519,0.353037037 L110.218519,5.27125926 L110.249481,5.27125926 C110.47763,4.86548148 110.837778,4.50533333 111.276148,4.26251852 C111.699852,4.01807407 112.203407,3.85511111 112.741185,3.85511111 C113.800444,3.85511111 115.495259,4.50533333 115.495259,7.22681481 L115.495259,11.9168889 L114.061185,11.9168889 L114.061185,7.38977778 C114.061185,6.1202963 113.588593,5.04311111 112.23763,5.04311111 C111.308741,5.04311111 110.575407,5.69496296 110.314667,6.47718519 C110.233185,6.67274074 110.218519,6.88459259 110.218519,7.16162963 L110.218519,11.9168889 L108.784444,11.9168889 L108.784444,0.353037037" id="Fill-23"></path>
                        <path d="M119.091852,8.23555556 C119.122815,10.1748148 120.361333,10.9717037 121.795407,10.9717037 C122.820444,10.9717037 123.439704,10.7940741 123.977481,10.5659259 L124.220296,11.590963 C123.716741,11.8207407 122.853037,12.0798519 121.599852,12.0798519 C119.173333,12.0798519 117.722963,10.4828148 117.722963,8.10518519 C117.722963,5.72755556 119.122815,3.85511111 121.420593,3.85511111 C123.993778,3.85511111 124.678222,6.1202963 124.678222,7.56740741 C124.678222,7.86237037 124.64563,8.09051852 124.627704,8.23555556 L119.091852,8.23555556 L119.091852,8.23555556 Z M123.293037,7.20888889 C123.309333,6.29792593 122.919852,4.88177778 121.304889,4.88177778 C119.857778,4.88177778 119.220593,6.21644444 119.108148,7.20888889 L123.293037,7.20888889 L123.293037,7.20888889 Z" id="Fill-24"></path>
                    </g>
                </g>
            </g>
        </g>
    </g>
</svg>