<?xml version="1.0" encoding="UTF-8" standalone="no"?>
<svg width="220px" height="66px" viewBox="0 0 220 66" version="1.1" xmlns="http://www.w3.org/2000/svg" xmlns:xlink="http://www.w3.org/1999/xlink" xmlns:sketch="http://www.bohemiancoding.com/sketch/ns">
    <!-- Generator: Sketch 3.3.3 (12081) - http://www.bohemiancoding.com/sketch -->
    <title>GooglePlay</title>
    <desc>Created with Sketch.</desc>
    <defs>
        <path id="path-1" d="M28.6448312,15.8339996 L19.5662193,10.5191084 C19.5662193,10.5191084 3.02600515,0.836567298 2.0521805,0.267888944 C1.08000083,-0.300789409 0.111111111,0.0427523527 0.111111111,1.23347477 L0.111111111,21.9076846 L0.111111111,43.0004817 C0.111111111,43.8926897 0.803645191,44.2762557 1.64916186,43.7826229 C2.49303355,43.2873224 19.5662193,33.2945931 19.5662193,33.2945931 L28.6448312,27.9797018 C28.6448312,27.9797018 36.3482447,23.471967 37.3730635,22.8716027 C38.3962374,22.2729062 38.297539,21.449073 37.4339276,20.9787877 C36.5703162,20.5068347 28.6448312,15.8339996 28.6448312,15.8339996"></path>
        <linearGradient x1="50%" y1="0%" x2="50%" y2="100%" id="linearGradient-3">
            <stop stop-color="#F48779" offset="0%"></stop>
            <stop stop-color="#FDC674" offset="100%"></stop>
        </linearGradient>
        <linearGradient x1="50%" y1="0%" x2="50%" y2="100%" id="linearGradient-4">
            <stop stop-color="#EB403D" offset="0%"></stop>
            <stop stop-color="#894A9C" offset="100%"></stop>
        </linearGradient>
        <linearGradient x1="0%" y1="30.2012116%" x2="100%" y2="30.2012116%" id="linearGradient-5">
            <stop stop-color="#51BFAC" offset="0%"></stop>
            <stop stop-color="#DEE899" offset="100%"></stop>
        </linearGradient>
        <linearGradient x1="50%" y1="0%" x2="50%" y2="100%" id="linearGradient-6">
            <stop stop-color="#257DB0" offset="0%"></stop>
            <stop stop-color="#89CEBC" offset="100%"></stop>
        </linearGradient>
    </defs>
    <g id="Desktop" stroke="none" stroke-width="1" fill="none" fill-rule="evenodd" sketch:type="MSPage">
        <g id="01_Desktop" sketch:type="MSArtboardGroup" transform="translate(-810.000000, -1702.000000)">
            <g id="Get-the-app" sketch:type="MSLayerGroup" transform="translate(0.000000, 1240.000000)">
                <g id="GooglePlay" transform="translate(810.000000, 462.000000)">
                    <path d="M212.172889,65.1851852 L7.70651852,65.1851852 C3.45807407,65.1851852 0,61.6488889 0,57.4037037 L0,7.63318519 C0,3.38637037 3.45807407,0 7.70651852,0 L212.172889,0 C216.419704,0 220,3.38637037 220,7.63318519 L220,57.4037037 C220,61.6488889 216.419704,65.1851852 212.172889,65.1851852" id="Fill-1" fill="#4A4A4A" sketch:type="MSShapeGroup"></path>
                    <g id="Icon" transform="translate(19.888889, 11.000000)">
                        <mask id="mask-2" sketch:name="Mask" fill="white">
                            <use xlink:href="#path-1"></use>
                        </mask>
                        <use id="Mask" fill="#A91818" sketch:type="MSShapeGroup" xlink:href="#path-1"></use>
                        <path d="M28.7106714,15.8670596 L22.6563889,22.0008421 L28.7106714,28.1329404 L39.1111111,22.0008421 L28.7106714,15.8670596" id="Clip-11" fill="url(#linearGradient-3)" sketch:type="MSShapeGroup" mask="url(#mask-2)"></path>
                        <path d="M0.111111111,44.8349504 L0.111111111,45 L28.7106714,28.1329404 L22.6563889,22.0008421 L0.111111111,44.8349504" id="Clip-8" fill="url(#linearGradient-4)" sketch:type="MSShapeGroup" mask="url(#mask-2)"></path>
                        <path d="M28.7106714,15.8670596 L0.111111111,-1 L0.111111111,-0.83326621 L22.6563889,22.0008421 L28.7106714,15.8670596" id="Clip-5" fill="url(#linearGradient-5)" sketch:type="MSShapeGroup" mask="url(#mask-2)"></path>
                        <path d="M0.111111111,-0.83326621 L0.111111111,44.8349504 L22.6563889,22.0008421 L0.111111111,-0.83326621" id="Path" fill="url(#linearGradient-6)" sketch:type="MSShapeGroup" mask="url(#mask-2)"></path>
                    </g>
                    <g id="Text" transform="translate(68.000000, 10.000000)" sketch:type="MSShapeGroup">
                        <path d="M99.684,39.6597037 C98.8072593,39.6597037 98.0054815,39.4983704 97.2819259,39.1757037 C96.5567407,38.8514074 95.9488889,38.3543704 95.4567407,37.682963 L95.3100741,37.682963 C95.4078519,38.4684444 95.4567407,39.2131852 95.4567407,39.9188148 L95.4567407,45.4595556 L93.4180741,45.4595556 L93.4180741,25.948 L95.077037,25.948 L95.358963,27.7911111 L95.4567407,27.7911111 C95.9814815,27.0528889 96.5925926,26.5216296 97.2884444,26.1940741 C97.9842963,25.8665185 98.7828148,25.7019259 99.684,25.7019259 C101.470074,25.7019259 102.848741,26.313037 103.81837,27.5336296 C104.78963,28.7542222 105.275259,30.4653333 105.275259,32.6685926 C105.275259,34.88 104.781481,36.5976296 103.795556,37.8247407 C102.80637,39.0485926 101.437481,39.6597037 99.684,39.6597037 L99.684,39.6597037 Z M99.389037,27.4342222 C98.012,27.4342222 97.0179259,27.8155556 96.4035556,28.5765926 C95.7891852,29.3392593 95.473037,30.5517037 95.4567407,32.2139259 L95.4567407,32.6685926 C95.4567407,34.5605926 95.7728889,35.9148148 96.4035556,36.7296296 C97.0342222,37.5444444 98.0462222,37.9518519 99.4379259,37.9518519 C100.601481,37.9518519 101.512444,37.4808889 102.172444,36.538963 C102.832444,35.5986667 103.16163,34.2998519 103.16163,32.6441481 C103.16163,30.9656296 102.832444,29.6765926 102.172444,28.7802963 C101.512444,27.8823704 100.585185,27.4342222 99.389037,27.4342222 L99.389037,27.4342222 Z" id="Fill-14" fill="#FBFBFB"></path>
                        <path d="M107.95763,20.2964444 L109.997926,20.2964444 L109.997926,39.4136296 L107.95763,39.4136296 L107.95763,20.2964444 Z" id="Fill-15" fill="#FBFBFB"></path>
                        <path d="M121.723111,39.4136296 L121.317333,37.4971852 L121.219556,37.4971852 C120.546519,38.3413333 119.876741,38.9133333 119.210222,39.2115556 C118.542074,39.5114074 117.709333,39.6597037 116.71037,39.6597037 C115.374074,39.6597037 114.327852,39.3158519 113.570074,38.6281481 C112.812296,37.9404444 112.434222,36.961037 112.434222,35.6915556 C112.434222,32.9733333 114.609778,31.5474074 118.95763,31.4154074 L121.244,31.3420741 L121.244,30.5060741 C121.244,29.4500741 121.015852,28.6694815 120.561185,28.1659259 C120.108148,27.6623704 119.379704,27.4097778 118.380741,27.4097778 C117.257926,27.4097778 115.988444,27.7536296 114.572296,28.442963 L113.944889,26.8817778 C114.609778,26.5216296 115.334963,26.2397037 116.126963,26.0343704 C116.915704,25.829037 117.709333,25.7263704 118.502963,25.7263704 C120.109778,25.7263704 121.297778,26.0832593 122.073481,26.7954074 C122.847556,27.5091852 123.233778,28.6515556 123.233778,30.2241481 L123.233778,39.4136296 L121.723111,39.4136296 L121.723111,39.4136296 Z M117.116148,37.9762963 C118.384,37.9762963 119.381333,37.6291852 120.108148,36.9333333 C120.831704,36.2374815 121.195111,35.2613333 121.195111,34.0081481 L121.195111,32.7924444 L119.154815,32.8771852 C117.533333,32.9358519 116.363259,33.1868148 115.646222,33.6333333 C114.930815,34.0798519 114.572296,34.7740741 114.572296,35.716 C114.572296,36.4525926 114.793926,37.0148148 115.242074,37.3994074 C115.688593,37.784 116.311111,37.9762963 117.116148,37.9762963 L117.116148,37.9762963 Z" id="Fill-16" fill="#FBFBFB"></path>
                        <path d="M124.418519,25.948 L126.603852,25.948 L129.553481,33.6268148 C130.200444,35.3802963 130.601333,36.6465185 130.757778,37.4238519 L130.855556,37.4238519 C130.963111,37.0066667 131.18637,36.2912593 131.525333,35.2792593 C131.865926,34.2672593 132.977333,31.1579259 134.861185,25.948 L137.049778,25.948 L131.261333,41.2811852 C130.687704,42.7967407 130.017926,43.8722963 129.252,44.5078519 C128.486074,45.1417778 127.545778,45.4595556 126.432741,45.4595556 C125.810222,45.4595556 125.195852,45.3894815 124.58963,45.250963 L124.58963,43.6164444 C125.039407,43.7142222 125.542963,43.7647407 126.100296,43.7647407 C127.501778,43.7647407 128.500741,42.9776296 129.098815,41.405037 L129.848444,39.4885926 L124.418519,25.948" id="Fill-17" fill="#FBFBFB"></path>
                        <path d="M61.901037,27.1995556 C62.5496296,27.7340741 63.9005926,28.8601481 63.9005926,31.0014815 C63.9005926,33.0857778 62.7174815,34.0733333 61.5343704,35.0005926 C61.1677037,35.3672593 60.7456296,35.7632593 60.7456296,36.3825185 C60.7456296,37.0001481 61.1677037,37.3391111 61.478963,37.5933333 L62.4942222,38.3804444 C63.7327407,39.4234074 64.8588148,40.3816296 64.8588148,42.3257778 C64.8588148,44.9722963 62.2954074,47.6481481 57.4521481,47.6481481 C53.3666667,47.6481481 51.3964444,45.7056296 51.3964444,43.6197037 C51.3964444,42.6060741 51.9016296,41.1703704 53.5638519,40.1828148 C55.3091852,39.1121481 57.677037,38.9736296 58.9432593,38.8872593 C58.5488889,38.3804444 58.0991111,37.8459259 58.0991111,36.9740741 C58.0991111,36.494963 58.2408889,36.213037 58.381037,35.8740741 C58.0697778,35.9017778 57.7601481,35.9311111 57.4782222,35.9311111 C54.4943704,35.9311111 52.8028148,33.705037 52.8028148,31.5082963 C52.8028148,30.2127407 53.396,28.7754074 54.6051852,27.7340741 C56.212,26.4108148 58.1268148,26.1842963 59.6488889,26.1842963 L65.4503704,26.1842963 L63.6463704,27.1995556 L61.901037,27.1995556 L61.901037,27.1995556 Z M59.9014815,39.7053333 C59.6765926,39.676 59.5348148,39.676 59.2545185,39.676 C59.0019259,39.676 57.4782222,39.733037 56.2967407,40.129037 C55.6774815,40.3522963 53.8734815,41.0285926 53.8734815,43.0297778 C53.8734815,45.0277037 55.8176296,46.4666667 58.8324444,46.4666667 C61.5343704,46.4666667 62.9733333,45.1678519 62.9733333,43.4241481 C62.9733333,41.9851852 62.0428148,41.2274074 59.9014815,39.7053333 L59.9014815,39.7053333 Z M60.7195556,34.3536296 C61.3665185,33.705037 61.4219259,32.8038519 61.4219259,32.297037 C61.4219259,30.2697778 60.2111111,27.1148148 57.8742222,27.1148148 C57.1408889,27.1148148 56.3521481,27.4798519 55.9023704,28.0453333 C55.4232593,28.6368889 55.2814815,29.3962963 55.2814815,30.1296296 C55.2814815,32.0167407 56.3798519,35.1423704 58.8031111,35.1423704 C59.5071111,35.1423704 60.2665185,34.805037 60.7195556,34.3536296 L60.7195556,34.3536296 Z" id="Fill-18" fill="#FBFBFB"></path>
                        <path d="M44.1706667,39.2555556 C39.698963,39.2555556 37.3082963,35.7681481 37.3082963,32.6180741 C37.3082963,28.9334815 40.3165926,25.785037 44.5927407,25.785037 C48.7254815,25.785037 51.3133333,29.0182222 51.3133333,32.4208889 C51.3133333,35.7388148 48.7548148,39.2555556 44.1706667,39.2555556 L44.1706667,39.2555556 Z M47.6841481,36.9773333 C48.3604444,36.0761481 48.5299259,34.9517037 48.5299259,33.854963 C48.5299259,31.3795556 47.3484444,26.6552593 43.861037,26.6552593 C42.9337778,26.6552593 42.0048889,27.0219259 41.3302222,27.6134815 C40.2334815,28.5961481 40.0362963,29.8346667 40.0362963,31.0454815 C40.0362963,33.8272593 41.4133333,38.4097778 44.8176296,38.4097778 C45.9143704,38.4097778 47.0388148,37.8768889 47.6841481,36.9773333 L47.6841481,36.9773333 Z" id="Fill-19" fill="#FBFBFB"></path>
                        <path d="M28.9287407,39.2555556 C24.457037,39.2555556 22.0663704,35.7681481 22.0663704,32.6180741 C22.0663704,28.9334815 25.0762963,25.785037 29.3508148,25.785037 C33.4835556,25.785037 36.0714074,29.0182222 36.0714074,32.4208889 C36.0714074,35.7388148 33.5128889,39.2555556 28.9287407,39.2555556 L28.9287407,39.2555556 Z M32.4438519,36.9773333 C33.1185185,36.0761481 33.288,34.9517037 33.288,33.854963 C33.288,31.3795556 32.1065185,26.6552593 28.6191111,26.6552593 C27.6918519,26.6552593 26.762963,27.0219259 26.0882963,27.6134815 C24.9915556,28.5961481 24.7943704,29.8346667 24.7943704,31.0454815 C24.7943704,33.8272593 26.1714074,38.4097778 29.5757037,38.4097778 C30.6724444,38.4097778 31.7968889,37.8768889 32.4438519,36.9773333 L32.4438519,36.9773333 Z" id="Fill-20" fill="#FBFBFB"></path>
                        <path d="M19.9185185,38.8139259 L15.8754074,39.7477037 C14.2343704,40.0019259 12.7644444,40.2268148 11.2114074,40.2268148 C3.40711111,40.2268148 0.439555556,34.4872593 0.439555556,29.9911111 C0.439555556,24.5074074 4.65051852,19.4197037 11.8616296,19.4197037 C13.3885926,19.4197037 14.8568889,19.6462222 16.1866667,20.0128889 C18.3068148,20.6077037 19.296,21.341037 19.9185185,21.7663704 L17.5702222,23.998963 L16.581037,24.2254815 L17.2882963,23.0928889 C16.3284444,22.1607407 14.5733333,20.4365926 11.2391111,20.4365926 C6.7722963,20.4365926 3.40711111,23.8311111 3.40711111,28.7786667 C3.40711111,34.0912593 7.25140741,39.0958519 13.4146667,39.0958519 C15.2251852,39.0958519 16.1573333,38.7291852 17.0047407,38.3885926 L17.0047407,33.8386667 L12.7367407,34.0635556 L14.997037,32.8478519 L20.9924444,32.8478519 L20.2574815,33.5534815 C20.0586667,33.7245926 20.030963,33.7816296 19.9739259,34.0048889 C19.9445926,34.2607407 19.9185185,35.0804444 19.9185185,35.364 L19.9185185,38.8139259" id="Fill-21" fill="#FBFBFB"></path>
                        <path d="M70.8379259,38.0007407 C69.9041481,37.9143704 69.7085926,37.7465185 69.7085926,36.6416296 L69.7085926,20.6402963 C69.7151111,20.58 69.7183704,20.5180741 69.7248889,20.4577778 C69.838963,19.4702222 70.1208889,19.2991111 70.9976296,18.7906667 L66.9545185,18.7906667 L64.8327407,19.8075556 L66.9936296,19.8075556 L66.9936296,19.8205926 L66.992,19.8108148 L66.992,37.2641481 C66.992,37.8296296 66.8811852,37.9143704 66.2293333,38.7617778 L71.2339259,38.7617778 L72.2801481,38.1425185 C71.7994074,38.0838519 71.3186667,38.0561481 70.8379259,38.0007407" id="Fill-22" fill="#FBFBFB"></path>
                        <path d="M82.3414815,38.2598519 C82.0334815,38.4293333 81.7254815,38.6265185 81.4174815,38.765037 C80.4885926,39.1871111 79.5352593,39.2995556 78.6911111,39.2995556 C77.7948148,39.2995556 76.3900741,39.2408889 74.9576296,38.2028148 C72.9645926,36.7980741 72.0943704,34.3845926 72.0943704,32.2791111 C72.0943704,27.928 75.6322963,25.7948148 78.5232593,25.7948148 C79.5352593,25.7948148 80.574963,26.0457778 81.4174815,26.5802963 C82.818963,27.5059259 83.1856296,28.7118519 83.3795556,29.3588148 L76.7844444,32.0265185 L74.6219259,32.196 C75.3226667,35.7616296 77.7377778,37.8377778 80.4054815,37.8377778 C81.8362963,37.8377778 82.876,37.3325926 83.830963,36.8567407 L82.3414815,38.2598519 L82.3414815,38.2598519 Z M79.7031111,29.8917037 C80.236,29.6961481 80.5162963,29.5266667 80.5162963,29.1339259 C80.5162963,28.0127407 79.254963,26.7204444 77.7377778,26.7204444 C76.6133333,26.7204444 74.5078519,27.5906667 74.5078519,30.6217778 C74.5078519,31.0992593 74.5648889,31.6044444 74.5942222,32.1112593 L79.7031111,29.8917037 L79.7031111,29.8917037 Z" id="Fill-23" fill="#FBFBFB"></path>
                        <path d="M85.0515556,25.9854815 L85.0515556,27.8383704 L84.8266667,27.8383704 L84.8266667,25.9854815 L84.2139259,25.9854815 L84.2139259,25.7948148 L85.6642963,25.7948148 L85.6642963,25.9854815 L85.0515556,25.9854815" id="Fill-24" fill="#FBFBFB"></path>
                        <path d="M87.5774815,27.8383704 L87.5774815,25.9691852 L87.5677037,25.9691852 L86.9957037,27.8383704 L86.8197037,27.8383704 L86.2444444,25.9691852 L86.2379259,25.9691852 L86.2379259,27.8383704 L86.0342222,27.8383704 L86.0342222,25.7948148 L86.382963,25.7948148 L86.9044444,27.4472593 L86.9125926,27.4472593 L87.4242963,25.7948148 L87.7795556,25.7948148 L87.7795556,27.8383704 L87.5774815,27.8383704" id="Fill-25" fill="#FBFBFB"></path>
                        <path d="M11.7084444,11.428 C11.0728889,11.6561481 9.8197037,12.0325926 8.33674074,12.0325926 C6.67614815,12.0325926 5.30725926,11.6088889 4.23333333,10.5822222 C3.28814815,9.66962963 2.70148148,8.20459259 2.70148148,6.49348148 C2.71777778,3.21955556 4.96503704,0.82562963 8.64637037,0.82562963 C9.91748148,0.82562963 10.9099259,1.10266667 11.3825185,1.33081481 L11.0402963,2.48622222 C10.4552593,2.22711111 9.72192593,2.01362963 8.61377778,2.01362963 C5.94281481,2.01362963 4.20074074,3.67585185 4.20074074,6.4282963 C4.20074074,9.21333333 5.87762963,10.8592593 8.43451852,10.8592593 C9.36340741,10.8592593 9.99896296,10.7288889 10.3232593,10.5659259 L10.3232593,7.29037037 L8.0922963,7.29037037 L8.0922963,6.15125926 L11.7084444,6.15125926 L11.7084444,11.428" id="Fill-26" fill="#FFFFFF"></path>
                        <path d="M15.2365926,8.23555556 C15.2691852,10.1748148 16.5060741,10.9717037 17.9401481,10.9717037 C18.9668148,10.9717037 19.5844444,10.7940741 20.1222222,10.5659259 L20.3666667,11.590963 C19.8614815,11.8207407 18.9977778,12.0798519 17.7445926,12.0798519 C15.3180741,12.0798519 13.8677037,10.4828148 13.8677037,8.10518519 C13.8677037,5.72755556 15.2691852,3.85511111 17.5653333,3.85511111 C20.1385185,3.85511111 20.822963,6.1202963 20.822963,7.56740741 C20.822963,7.86237037 20.7903704,8.09051852 20.7740741,8.23555556 L15.2365926,8.23555556 L15.2365926,8.23555556 Z M19.4377778,7.21051852 C19.4540741,6.29792593 19.062963,4.88177778 17.4512593,4.88177778 C16.0008889,4.88177778 15.366963,6.21644444 15.2528889,7.21051852 L19.4377778,7.21051852 L19.4377778,7.21051852 Z" id="Fill-27" fill="#FFFFFF"></path>
                        <path d="M24.7943704,1.77081481 L24.7943704,4.03437037 L26.8477037,4.03437037 L26.8477037,5.12459259 L24.7943704,5.12459259 L24.7943704,9.3762963 C24.7943704,10.3524444 25.0714074,10.9065185 25.8699259,10.9065185 C26.2447407,10.9065185 26.5217778,10.8592593 26.701037,10.8103704 L26.7662222,11.8859259 C26.4891852,11.9983704 26.0491852,12.0798519 25.4951111,12.0798519 C24.826963,12.0798519 24.2891852,11.868 23.9485926,11.4785185 C23.5411852,11.0548148 23.3945185,10.3524444 23.3945185,9.42518519 L23.3945185,5.12459259 L22.1722963,5.12459259 L22.1722963,4.03437037 L23.3945185,4.03437037 L23.3945185,2.144 L24.7943704,1.77081481" id="Fill-28" fill="#FFFFFF"></path>
                        <path d="M34.3277037,1.8197037 C34.344,2.30859259 33.9854815,2.69807407 33.4151111,2.69807407 C32.9099259,2.69807407 32.553037,2.30859259 32.553037,1.8197037 C32.553037,1.31288889 32.9278519,0.923407407 33.4477037,0.923407407 C33.9854815,0.923407407 34.3277037,1.31288889 34.3277037,1.8197037 L34.3277037,1.8197037 Z M32.7322963,4.03437037 L34.1647407,4.03437037 L34.1647407,11.9168889 L32.7322963,11.9168889 L32.7322963,4.03437037 Z" id="Fill-29" fill="#FFFFFF"></path>
                        <path d="M38.6788148,1.77081481 L38.6788148,4.03437037 L40.7305185,4.03437037 L40.7305185,5.12459259 L38.6788148,5.12459259 L38.6788148,9.3762963 C38.6788148,10.3524444 38.9558519,10.9065185 39.7543704,10.9065185 C40.1291852,10.9065185 40.4062222,10.8592593 40.5838519,10.8103704 L40.649037,11.8859259 C40.3736296,11.9983704 39.932,12.0798519 39.3795556,12.0798519 C38.7114074,12.0798519 38.1736296,11.868 37.8314074,11.4785185 C37.424,11.0548148 37.278963,10.3524444 37.278963,9.42518519 L37.278963,5.12459259 L36.0567407,5.12459259 L36.0567407,4.03437037 L37.278963,4.03437037 L37.278963,2.144 L38.6788148,1.77081481" id="Fill-30" fill="#FFFFFF"></path>
                        <path d="M53.7496296,7.90962963 C53.7496296,10.825037 51.7305185,12.0977778 49.8238519,12.0977778 C47.6906667,12.0977778 46.0447407,10.5333333 46.0447407,8.04 C46.0447407,5.40162963 47.7721481,3.85511111 49.9542222,3.85511111 C52.2194074,3.85511111 53.7496296,5.50103704 53.7496296,7.90962963 L53.7496296,7.90962963 Z M47.4951111,7.99274074 C47.4951111,9.71851852 48.4875556,11.0205926 49.889037,11.0205926 C51.2579259,11.0205926 52.282963,9.73481481 52.282963,7.96014815 C52.282963,6.62385185 51.6148148,4.92903704 49.9216296,4.92903704 C48.2268148,4.92903704 47.4951111,6.49348148 47.4951111,7.99274074 L47.4951111,7.99274074 Z" id="Fill-31" fill="#FFFFFF"></path>
                        <path d="M56.0066667,6.16755556 C56.0066667,5.35437037 55.9903704,4.68622222 55.9414815,4.03437037 L57.210963,4.03437037 L57.2940741,5.33644444 L57.325037,5.33644444 C57.7177778,4.58844444 58.6287407,3.85511111 59.9324444,3.85511111 C61.0226667,3.85511111 62.7174815,4.50533333 62.7174815,7.21051852 L62.7174815,11.9168889 L61.2834074,11.9168889 L61.2834074,7.37348148 C61.2834074,6.10237037 60.8108148,5.04311111 59.4598519,5.04311111 C58.5146667,5.04311111 57.782963,5.71288889 57.5368889,6.50977778 C57.4717037,6.68903704 57.4407407,6.93348148 57.4407407,7.17792593 L57.4407407,11.9168889 L56.0066667,11.9168889 L56.0066667,6.16755556" id="Fill-32" fill="#FFFFFF"></path>
                    </g>
                </g>
            </g>
        </g>
    </g>
</svg>